<svg width="19" height="14" viewBox="0 0 19 14" fill="none" xmlns="http://www.w3.org/2000/svg">
<path d="M12.6666 6.99999C11.8527 6.99999 11.0658 6.63488 10.4499 5.97227C9.85101 5.32596 9.48526 4.46409 9.42074 3.54613C9.35186 2.56693 9.64913 1.66648 10.2575 1.01023C10.8659 0.353977 11.7166 0 12.6666 0C13.6098 0 14.4628 0.36034 15.0693 1.015C15.6816 1.67602 15.9797 2.57488 15.9108 3.54573C15.8447 4.46488 15.4793 5.32636 14.8816 5.97187C14.2673 6.63488 13.4808 6.99999 12.6666 6.99999ZM17.8848 14H7.44871C7.28092 14.0009 7.11516 13.9631 6.96419 13.8895C6.81322 13.816 6.68106 13.7086 6.57788 13.5756C6.46843 13.4315 6.39285 13.2643 6.3568 13.0867C6.32074 12.9091 6.32514 12.7256 6.36967 12.5499C6.70296 11.2052 7.52867 10.0899 8.75733 9.3251C9.84784 8.64658 11.236 8.27272 12.6666 8.27272C14.1252 8.27272 15.477 8.63067 16.5738 9.3088C17.8052 10.0696 18.6321 11.1912 18.9638 12.5523C19.0078 12.7281 19.0117 12.9116 18.9753 13.0891C18.9388 13.2667 18.8629 13.4336 18.7533 13.5776C18.6502 13.7099 18.5183 13.8168 18.3678 13.89C18.2173 13.9632 18.052 14.0008 17.8848 14V14ZM5.18534 7.15908C3.79241 7.15908 2.56771 5.85772 2.45411 4.25846C2.3979 3.43914 2.65202 2.68147 3.16661 2.12585C3.67564 1.57579 4.39368 1.27273 5.18534 1.27273C5.97701 1.27273 6.6895 1.57738 7.20131 2.13062C7.71985 2.69062 7.97318 3.4467 7.91381 4.25926C7.80021 5.85812 6.5759 7.15908 5.18534 7.15908ZM7.78437 8.40993C7.08811 8.06789 6.18442 7.89687 5.18574 7.89687C4.01962 7.89687 2.88715 8.20232 1.99653 8.75675C0.986762 9.38635 0.307516 10.3031 0.0332048 11.41C-0.00693838 11.5692 -0.0107352 11.7355 0.0220983 11.8964C0.0549319 12.0572 0.123546 12.2086 0.222808 12.3391C0.316995 12.4606 0.437659 12.5587 0.57552 12.626C0.713381 12.6933 0.864766 12.728 1.01803 12.7273H5.41176C5.48592 12.7272 5.55772 12.7011 5.61465 12.6533C5.67158 12.6056 5.71002 12.5393 5.72328 12.466C5.72763 12.4409 5.73317 12.4158 5.73951 12.3912C6.07517 11.0365 6.86169 9.89186 8.02385 9.05743C8.0666 9.02647 8.10098 8.98529 8.12388 8.9376C8.14678 8.88992 8.15747 8.83725 8.155 8.78437C8.15252 8.73148 8.13695 8.68005 8.10969 8.63474C8.08244 8.58943 8.04436 8.55167 7.99891 8.52488C7.93677 8.48829 7.86552 8.44971 7.78437 8.40993V8.40993Z" fill="black"/>
</svg>
