<svg width="19" height="15" viewBox="0 0 19 15" fill="none" xmlns="http://www.w3.org/2000/svg">
<path d="M12.6666 7.49999C11.8527 7.49999 11.0658 7.13488 10.4499 6.47227C9.85101 5.82596 9.48526 4.96409 9.42074 4.04613C9.35186 3.06693 9.64913 2.16648 10.2575 1.51023C10.8659 0.853977 11.7166 0.5 12.6666 0.5C13.6098 0.5 14.4628 0.86034 15.0693 1.515C15.6816 2.17602 15.9797 3.07488 15.9108 4.04573C15.8447 4.96488 15.4793 5.82636 14.8816 6.47187C14.2673 7.13488 13.4808 7.49999 12.6666 7.49999ZM17.8848 14.5H7.44871C7.28092 14.5009 7.11516 14.4631 6.96419 14.3895C6.81322 14.316 6.68106 14.2086 6.57788 14.0756C6.46843 13.9315 6.39285 13.7643 6.3568 13.5867C6.32074 13.4091 6.32514 13.2256 6.36967 13.0499C6.70296 11.7052 7.52867 10.5899 8.75733 9.8251C9.84784 9.14658 11.236 8.77272 12.6666 8.77272C14.1252 8.77272 15.477 9.13067 16.5738 9.8088C17.8052 10.5696 18.6321 11.6912 18.9638 13.0523C19.0078 13.2281 19.0117 13.4116 18.9753 13.5891C18.9388 13.7667 18.8629 13.9336 18.7533 14.0776C18.6502 14.2099 18.5183 14.3168 18.3678 14.39C18.2173 14.4632 18.052 14.5008 17.8848 14.5ZM5.18534 7.65908C3.79241 7.65908 2.56771 6.35772 2.45411 4.75846C2.3979 3.93914 2.65202 3.18147 3.16661 2.62585C3.67564 2.07579 4.39368 1.77273 5.18534 1.77273C5.97701 1.77273 6.6895 2.07738 7.20131 2.63062C7.71985 3.19062 7.97318 3.9467 7.91381 4.75926C7.80021 6.35812 6.5759 7.65908 5.18534 7.65908ZM7.78437 8.90993C7.08811 8.56789 6.18442 8.39687 5.18574 8.39687C4.01962 8.39687 2.88715 8.70232 1.99653 9.25675C0.986762 9.88635 0.307516 10.8031 0.0332048 11.91C-0.00693838 12.0692 -0.0107352 12.2355 0.0220983 12.3964C0.0549319 12.5572 0.123546 12.7086 0.222808 12.8391C0.316995 12.9606 0.437659 13.0587 0.57552 13.126C0.713381 13.1933 0.864766 13.228 1.01803 13.2273H5.41176C5.48592 13.2272 5.55772 13.2011 5.61465 13.1533C5.67158 13.1056 5.71002 13.0393 5.72328 12.966C5.72763 12.9409 5.73317 12.9158 5.73951 12.8912C6.07517 11.5365 6.86169 10.3919 8.02385 9.55743C8.0666 9.52647 8.10098 9.48529 8.12388 9.4376C8.14678 9.38992 8.15747 9.33725 8.155 9.28436C8.15252 9.23148 8.13695 9.18005 8.10969 9.13474C8.08244 9.08943 8.04436 9.05167 7.99891 9.02488C7.93677 8.98829 7.86552 8.94971 7.78437 8.90993Z" fill="white"/>
</svg>
