<svg width="18" height="18" viewBox="0 0 18 18" fill="none" xmlns="http://www.w3.org/2000/svg">
<path d="M2.84211 14.4H4.73684V16.2H16.1053V1.8H4.73684V3.6H2.84211V0.9C2.84211 0.661305 2.94192 0.432387 3.11958 0.263604C3.29725 0.0948211 3.53822 0 3.78947 0H17.0526C17.3039 0 17.5449 0.0948211 17.7225 0.263604C17.9002 0.432387 18 0.661305 18 0.9V17.1C18 17.3387 17.9002 17.5676 17.7225 17.7364C17.5449 17.9052 17.3039 18 17.0526 18H3.78947C3.53822 18 3.29725 17.9052 3.11958 17.7364C2.94192 17.5676 2.84211 17.3387 2.84211 17.1V14.4ZM4.73684 8.1H11.3684V9.9H4.73684V12.6L0 9L4.73684 5.4V8.1Z" fill="#1D1E2F"/>
</svg>
