<svg width="19" height="13" viewBox="0 0 19 13" fill="none" xmlns="http://www.w3.org/2000/svg">
<path d="M9.5 0C10.2349 0 10.9396 0.330603 11.4593 0.919079C11.9789 1.50756 12.2708 2.3057 12.2708 3.13793C12.2708 3.97016 11.9789 4.76831 11.4593 5.35678C10.9396 5.94526 10.2349 6.27586 9.5 6.27586C8.76513 6.27586 8.06036 5.94526 7.54073 5.35678C7.02109 4.76831 6.72917 3.97016 6.72917 3.13793C6.72917 2.3057 7.02109 1.50756 7.54073 0.919079C8.06036 0.330603 8.76513 0 9.5 0M3.95833 2.24138C4.40167 2.24138 4.81333 2.37586 5.16958 2.61793C5.05083 3.9 5.38333 5.1731 6.06417 6.16828C5.66833 7.02897 4.87667 7.62069 3.95833 7.62069C3.32844 7.62069 2.72435 7.33732 2.27895 6.83291C1.83356 6.3285 1.58333 5.64438 1.58333 4.93103C1.58333 4.21769 1.83356 3.53357 2.27895 3.02916C2.72435 2.52475 3.32844 2.24138 3.95833 2.24138M15.0417 2.24138C15.6716 2.24138 16.2756 2.52475 16.721 3.02916C17.1664 3.53357 17.4167 4.21769 17.4167 4.93103C17.4167 5.64438 17.1664 6.3285 16.721 6.83291C16.2756 7.33732 15.6716 7.62069 15.0417 7.62069C14.1233 7.62069 13.3317 7.02897 12.9358 6.16828C13.6261 5.15913 13.9464 3.88763 13.8304 2.61793C14.1867 2.37586 14.5983 2.24138 15.0417 2.24138M4.35417 11.431C4.35417 9.57517 6.65792 8.06897 9.5 8.06897C12.3421 8.06897 14.6458 9.57517 14.6458 11.431V13H4.35417V11.431ZM0 13V11.6552C0 10.409 1.49625 9.36 3.52292 9.05517C3.05583 9.66483 2.77083 10.5076 2.77083 11.431V13H0ZM19 13H16.2292V11.431C16.2292 10.5076 15.9442 9.66483 15.4771 9.05517C17.5037 9.36 19 10.409 19 11.6552V13Z" fill="black"/>
</svg>
